<svg width="33" height="33" viewBox="0 0 33 33" fill="none" xmlns="http://www.w3.org/2000/svg">
<path d="M16.0295 21.0164C13.8534 21.0164 12.0383 19.4759 11.6073 17.4291H4.36816C4.87986 23.381 9.87296 28.0509 15.9541 28.0509C22.0352 28.0509 27.0337 23.381 27.54 17.4291H20.4517C20.0207 19.4813 18.2056 21.0164 16.0295 21.0164Z" fill="white"/>
<path d="M18.6147 27.7493C23.4409 26.6182 27.1089 22.4869 27.5398 17.4291H24.6851C24.3996 22.0183 21.992 25.9072 18.6147 27.7493Z" fill="#DFDFDF"/>
<path d="M18.6957 16.4973C18.6903 16.4973 18.6903 16.4973 18.6957 16.4973C18.6903 16.1687 18.6311 15.8563 18.5233 15.5655C18.1463 14.5529 17.1714 13.8365 16.0295 13.8365C14.8876 13.8365 13.9127 14.5582 13.5356 15.5655C13.4279 15.8563 13.3687 16.1687 13.3687 16.4973H13.374C13.374 16.8259 13.4333 17.1383 13.541 17.4291C13.9181 18.4418 14.893 19.1581 16.0349 19.1581C17.1768 19.1581 18.1517 18.4364 18.5287 17.4291C18.6365 17.1437 18.6957 16.8259 18.6957 16.4973Z" fill="white"/>
<path d="M16.035 11.9836C18.211 11.9836 20.0262 13.5241 20.4571 15.5709H27.6963C27.1846 9.61362 22.1915 4.9437 16.105 4.9437C10.0185 4.9437 5.03074 9.61362 4.51904 15.5655H11.6128C12.0437 13.5187 13.8589 11.9836 16.035 11.9836Z" fill="#FF1C1C"/>
<path d="M24.6854 15.5655H27.691C27.2493 10.4216 23.4573 6.23102 18.5073 5.19147C21.9438 7.00665 24.3945 10.9333 24.6854 15.5655Z" fill="#DF1818"/>
<path d="M16.105 4.9437C22.1915 4.9437 27.1846 9.61362 27.6909 15.5655H20.4518C20.0209 13.5187 18.2057 11.9782 16.0296 11.9782C13.8535 11.9782 12.0384 13.5187 11.6075 15.5655H4.51908C5.03078 9.61362 10.0239 4.9437 16.105 4.9437ZM18.5235 15.5655C18.6312 15.8563 18.6904 16.1687 18.6904 16.4973H18.6958C18.6958 16.8259 18.6366 17.1383 18.5288 17.4291C18.1518 18.4418 17.1769 19.1581 16.035 19.1581C14.8931 19.1581 13.9182 18.4364 13.5411 17.4291C13.4334 17.1383 13.3742 16.8259 13.3742 16.4973H13.3688C13.3688 16.1687 13.428 15.8563 13.5357 15.5655C13.9128 14.5529 14.8877 13.8365 16.0296 13.8365C17.1715 13.8365 18.1464 14.5582 18.5235 15.5655ZM15.9542 28.0563C9.86768 28.0563 4.87458 23.3864 4.36827 17.4345H11.6075C12.0384 19.4813 13.8535 21.0218 16.0296 21.0218C18.2057 21.0218 20.0209 19.4813 20.4518 17.4345H27.5455C27.0338 23.381 22.0407 28.0563 15.9542 28.0563ZM16.0296 2.72454C8.42415 2.72454 2.25684 8.89185 2.25684 16.4973C2.25684 24.1028 8.42415 30.2701 16.0296 30.2701C23.6351 30.2701 29.8078 24.1081 29.8078 16.4973C29.8078 8.88647 23.6404 2.72454 16.0296 2.72454Z" fill="black"/>
</svg>
